# xmcd
#
# Track frame offsets:
#	150
#	12211
#	26353
#	40189
#	52926
#	68813
#	82516
#	97227
#	110447
#	122896
#	136172
#	149334
#	162457
#	175569
#	188708
#	201022
#	213169
#	226475
#	241267
#	255311
#	269690
#	284265
#
# Disc length: 3950 seconds
#
# Revision: 0
# Processed by: cddbd v1.5.2PL0 Copyright (c) Steve Scherf et al.
# Submitted via: audiograbber 1.83.01
#
DISCID=290f6c16
DTITLE=T Bone Walker - T Bone Blues
DYEAR=1900
DGENRE=Blues
TTITLE0=Bobby Sox Blues
TTITLE1=Come Back To Me Baby Blues
TTITLE2=Don't Give Me The Runaround
TTITLE3=Don't Leave Me Baby
TTITLE4=Evening
TTITLE5=Hard Pain Blues
TTITLE6=I Got A Break, Baby
TTITLE7=I'm Gonna Find My Baby
TTITLE8=I'm In An Awful Mood
TTITLE9=I'm Still In Love With You
TTITLE10=It's A Low Down Dirty Deal
TTITLE11=Mean Old World
TTITLE12=Mean Old World Blues
TTITLE13=My Baby Left Me
TTITLE14=No Worry Blues
TTITLE15=Sail On Boogie
TTITLE16=She Is Going To Ruin Me
TTITLE17=T Bone Blues
TTITLE18=T Bone Boogie
TTITLE19=Trinity River Blues
TTITLE20=Wichita Blues
TTITLE21=You Don't Love Me blues
EXTD=
EXTT0=
EXTT1=
EXTT2=
EXTT3=
EXTT4=
EXTT5=
EXTT6=
EXTT7=
EXTT8=
EXTT9=
EXTT10=
EXTT11=
EXTT12=
EXTT13=
EXTT14=
EXTT15=
EXTT16=
EXTT17=
EXTT18=
EXTT19=
EXTT20=
EXTT21=
PLAYORDER=
